<svg width="800" height="800" viewBox="0 0 800 800" fill="none" xmlns="http://www.w3.org/2000/svg">
<rect width="800" height="800" fill="white"/>
<circle cx="400" cy="400" r="11.5" stroke="black"/>
<rect x="388.25" y="388.25" width="23.5" height="23.5" stroke="black" stroke-opacity="0.25" stroke-width="0.5"/>
<circle cx="400" cy="400" r="2" fill="#E72A2A"/>
<path d="M317.055 400.744C316.967 401.496 316.688 402.077 316.22 402.487C315.754 402.894 315.134 403.098 314.359 403.098C313.52 403.098 312.846 402.797 312.338 402.194C311.833 401.592 311.581 400.786 311.581 399.777V399.094C311.581 398.433 311.698 397.852 311.933 397.351C312.17 396.849 312.506 396.465 312.938 396.198C313.371 395.928 313.873 395.793 314.442 395.793C315.198 395.793 315.803 396.005 316.259 396.428C316.715 396.848 316.98 397.43 317.055 398.176H316.112C316.031 397.609 315.854 397.199 315.58 396.945C315.31 396.691 314.931 396.564 314.442 396.564C313.843 396.564 313.373 396.786 313.031 397.229C312.693 397.671 312.523 398.301 312.523 399.118V399.807C312.523 400.578 312.685 401.192 313.007 401.647C313.329 402.103 313.78 402.331 314.359 402.331C314.88 402.331 315.279 402.214 315.556 401.979C315.836 401.742 316.021 401.33 316.112 400.744H317.055ZM317.958 400.31C317.958 399.792 318.059 399.326 318.261 398.913C318.466 398.5 318.749 398.181 319.11 397.956C319.475 397.731 319.89 397.619 320.355 397.619C321.075 397.619 321.656 397.868 322.099 398.366C322.545 398.864 322.768 399.527 322.768 400.354V400.417C322.768 400.931 322.668 401.394 322.47 401.804C322.274 402.211 321.993 402.528 321.625 402.756C321.26 402.984 320.84 403.098 320.365 403.098C319.649 403.098 319.068 402.849 318.622 402.351C318.179 401.853 317.958 401.193 317.958 400.373V400.31ZM318.866 400.417C318.866 401.003 319.001 401.473 319.271 401.828C319.545 402.183 319.91 402.36 320.365 402.36C320.824 402.36 321.189 402.181 321.459 401.823C321.729 401.462 321.864 400.957 321.864 400.31C321.864 399.73 321.726 399.261 321.449 398.903C321.176 398.542 320.811 398.361 320.355 398.361C319.91 398.361 319.55 398.539 319.276 398.894C319.003 399.248 318.866 399.756 318.866 400.417ZM324.882 403H323.979V395.5H324.882V403ZM327.313 403H326.41V395.5H327.313V403ZM332.025 403C331.973 402.896 331.931 402.71 331.898 402.443C331.479 402.88 330.977 403.098 330.395 403.098C329.874 403.098 329.446 402.951 329.11 402.658C328.778 402.362 328.612 401.988 328.612 401.535C328.612 400.985 328.821 400.559 329.237 400.256C329.657 399.95 330.246 399.797 331.005 399.797H331.884V399.382C331.884 399.066 331.789 398.815 331.601 398.63C331.412 398.441 331.133 398.347 330.766 398.347C330.443 398.347 330.173 398.428 329.955 398.591C329.737 398.754 329.628 398.951 329.628 399.182H328.72C328.72 398.918 328.812 398.664 328.998 398.42C329.187 398.173 329.441 397.977 329.76 397.834C330.082 397.691 330.435 397.619 330.819 397.619C331.428 397.619 331.905 397.772 332.25 398.078C332.595 398.381 332.774 398.799 332.787 399.333V401.765C332.787 402.25 332.849 402.635 332.973 402.922V403H332.025ZM330.526 402.312C330.81 402.312 331.078 402.238 331.332 402.092C331.586 401.945 331.77 401.755 331.884 401.521V400.437H331.176C330.069 400.437 329.516 400.76 329.516 401.408C329.516 401.691 329.61 401.913 329.799 402.072C329.988 402.232 330.23 402.312 330.526 402.312ZM338.666 400.417C338.666 401.221 338.482 401.869 338.114 402.36C337.746 402.852 337.248 403.098 336.62 403.098C335.979 403.098 335.474 402.894 335.106 402.487V405.031H334.203V397.717H335.028L335.072 398.303C335.44 397.847 335.951 397.619 336.605 397.619C337.24 397.619 337.742 397.858 338.109 398.337C338.48 398.815 338.666 399.481 338.666 400.334V400.417ZM337.763 400.314C337.763 399.719 337.636 399.248 337.382 398.903C337.128 398.558 336.78 398.386 336.337 398.386C335.79 398.386 335.38 398.628 335.106 399.113V401.638C335.377 402.119 335.79 402.36 336.347 402.36C336.78 402.36 337.123 402.189 337.377 401.848C337.634 401.503 337.763 400.992 337.763 400.314ZM342.895 401.599C342.895 401.354 342.802 401.166 342.616 401.032C342.434 400.896 342.113 400.778 341.654 400.681C341.199 400.583 340.836 400.466 340.565 400.329C340.299 400.192 340.1 400.03 339.97 399.841C339.843 399.652 339.779 399.427 339.779 399.167C339.779 398.734 339.962 398.368 340.326 398.068C340.694 397.769 341.163 397.619 341.732 397.619C342.331 397.619 342.816 397.774 343.188 398.083C343.562 398.392 343.749 398.788 343.749 399.27H342.841C342.841 399.022 342.735 398.809 342.523 398.63C342.315 398.451 342.051 398.361 341.732 398.361C341.404 398.361 341.146 398.433 340.961 398.576C340.775 398.719 340.683 398.907 340.683 399.138C340.683 399.356 340.769 399.52 340.941 399.631C341.114 399.742 341.425 399.847 341.874 399.948C342.326 400.049 342.693 400.17 342.973 400.31C343.253 400.45 343.459 400.619 343.593 400.817C343.729 401.013 343.798 401.252 343.798 401.535C343.798 402.007 343.609 402.386 343.231 402.673C342.854 402.956 342.364 403.098 341.762 403.098C341.339 403.098 340.964 403.023 340.639 402.873C340.313 402.723 340.058 402.515 339.872 402.248C339.69 401.978 339.599 401.687 339.599 401.374H340.502C340.518 401.677 340.639 401.918 340.863 402.097C341.091 402.272 341.391 402.36 341.762 402.36C342.104 402.36 342.377 402.292 342.582 402.155C342.79 402.015 342.895 401.83 342.895 401.599ZM347.167 403.098C346.451 403.098 345.868 402.863 345.419 402.395C344.97 401.923 344.745 401.293 344.745 400.505V400.339C344.745 399.815 344.844 399.348 345.043 398.938C345.245 398.524 345.525 398.202 345.883 397.971C346.244 397.736 346.635 397.619 347.055 397.619C347.742 397.619 348.275 397.845 348.656 398.298C349.037 398.75 349.228 399.398 349.228 400.241V400.617H345.648C345.661 401.138 345.813 401.56 346.103 401.882C346.396 402.201 346.767 402.36 347.216 402.36C347.535 402.36 347.805 402.295 348.026 402.165C348.248 402.035 348.441 401.862 348.607 401.647L349.159 402.077C348.716 402.757 348.052 403.098 347.167 403.098ZM347.055 398.361C346.69 398.361 346.384 398.495 346.137 398.762C345.889 399.025 345.736 399.396 345.678 399.875H348.324V399.807C348.298 399.348 348.174 398.993 347.953 398.742C347.732 398.488 347.432 398.361 347.055 398.361ZM350.058 400.314C350.058 399.504 350.25 398.853 350.634 398.361C351.018 397.867 351.521 397.619 352.143 397.619C352.761 397.619 353.251 397.831 353.612 398.254V395.5H354.516V403H353.686L353.642 402.434C353.28 402.876 352.777 403.098 352.133 403.098C351.521 403.098 351.021 402.847 350.634 402.346C350.25 401.844 350.058 401.19 350.058 400.383V400.314ZM350.961 400.417C350.961 401.016 351.085 401.485 351.332 401.823C351.579 402.162 351.921 402.331 352.357 402.331C352.93 402.331 353.349 402.074 353.612 401.56V399.133C353.342 398.635 352.927 398.386 352.367 398.386C351.924 398.386 351.579 398.557 351.332 398.898C351.085 399.24 350.961 399.746 350.961 400.417ZM363.773 400.744C363.686 401.496 363.407 402.077 362.938 402.487C362.473 402.894 361.853 403.098 361.078 403.098C360.238 403.098 359.564 402.797 359.057 402.194C358.552 401.592 358.3 400.786 358.3 399.777V399.094C358.3 398.433 358.417 397.852 358.651 397.351C358.889 396.849 359.224 396.465 359.657 396.198C360.09 395.928 360.591 395.793 361.161 395.793C361.916 395.793 362.522 396.005 362.978 396.428C363.433 396.848 363.699 397.43 363.773 398.176H362.831C362.75 397.609 362.572 397.199 362.299 396.945C362.029 396.691 361.649 396.564 361.161 396.564C360.562 396.564 360.092 396.786 359.75 397.229C359.411 397.671 359.242 398.301 359.242 399.118V399.807C359.242 400.578 359.403 401.192 359.726 401.647C360.048 402.103 360.499 402.331 361.078 402.331C361.599 402.331 361.998 402.214 362.274 401.979C362.554 401.742 362.74 401.33 362.831 400.744H363.773ZM365.897 403H364.994V397.717H365.897V403ZM364.921 396.315C364.921 396.169 364.965 396.045 365.053 395.944C365.144 395.843 365.277 395.793 365.453 395.793C365.629 395.793 365.762 395.843 365.854 395.944C365.945 396.045 365.99 396.169 365.99 396.315C365.99 396.462 365.945 396.584 365.854 396.682C365.762 396.779 365.629 396.828 365.453 396.828C365.277 396.828 365.144 396.779 365.053 396.682C364.965 396.584 364.921 396.462 364.921 396.315ZM369.901 398.527C369.765 398.505 369.617 398.493 369.457 398.493C368.865 398.493 368.463 398.745 368.251 399.25V403H367.348V397.717H368.227L368.241 398.327C368.537 397.855 368.957 397.619 369.501 397.619C369.677 397.619 369.81 397.642 369.901 397.688V398.527ZM372.758 402.36C373.08 402.36 373.362 402.263 373.603 402.067C373.843 401.872 373.977 401.628 374.003 401.335H374.857C374.841 401.638 374.737 401.926 374.545 402.199C374.353 402.473 374.096 402.691 373.773 402.854C373.454 403.016 373.116 403.098 372.758 403.098C372.038 403.098 371.465 402.858 371.039 402.38C370.616 401.898 370.404 401.241 370.404 400.407V400.256C370.404 399.742 370.499 399.284 370.688 398.884C370.876 398.483 371.146 398.173 371.498 397.951C371.853 397.73 372.271 397.619 372.753 397.619C373.345 397.619 373.837 397.797 374.228 398.151C374.621 398.506 374.831 398.967 374.857 399.533H374.003C373.977 399.191 373.847 398.911 373.612 398.693C373.381 398.472 373.095 398.361 372.753 398.361C372.294 398.361 371.938 398.527 371.684 398.859C371.433 399.188 371.308 399.665 371.308 400.29V400.461C371.308 401.07 371.433 401.538 371.684 401.867C371.934 402.196 372.292 402.36 372.758 402.36ZM376.854 403H375.951V395.5H376.854V403ZM380.497 403.098C379.781 403.098 379.198 402.863 378.749 402.395C378.3 401.923 378.075 401.293 378.075 400.505V400.339C378.075 399.815 378.174 399.348 378.373 398.938C378.575 398.524 378.855 398.202 379.213 397.971C379.574 397.736 379.965 397.619 380.385 397.619C381.072 397.619 381.605 397.845 381.986 398.298C382.367 398.75 382.558 399.398 382.558 400.241V400.617H378.979C378.992 401.138 379.143 401.56 379.433 401.882C379.726 402.201 380.097 402.36 380.546 402.36C380.865 402.36 381.135 402.295 381.356 402.165C381.578 402.035 381.771 401.862 381.938 401.647L382.489 402.077C382.047 402.757 381.382 403.098 380.497 403.098ZM380.385 398.361C380.02 398.361 379.714 398.495 379.467 398.762C379.219 399.025 379.066 399.396 379.008 399.875H381.654V399.807C381.628 399.348 381.505 398.993 381.283 398.742C381.062 398.488 380.762 398.361 380.385 398.361Z" fill="black"/>
<line x1="94.5" y1="706" x2="94.5" y2="94" stroke="black"/>
<circle cx="400" cy="400" r="305.5" stroke="black"/>
<rect x="94.25" y="94.25" width="611.5" height="611.5" stroke="black" stroke-opacity="0.25" stroke-width="0.5"/>
<path d="M313.359 539.948L311.84 542.629L314.032 543.871L315.797 540.757L316.464 541.136L314.236 545.065L308.052 541.559L310.255 537.672L310.926 538.052L309.185 541.124L311.173 542.251L312.693 539.57L313.359 539.948ZM314.925 537.047L313.825 535.077L314.345 534.159L315.766 536.951L318.968 536.718L318.453 537.627L316.13 537.714L317.249 539.751L316.731 540.664L315.286 537.796L312.161 538.012L312.677 537.103L314.925 537.047ZM319.37 530.771C320.069 531.168 320.542 531.647 320.788 532.21C321.034 532.772 321.003 533.327 320.693 533.873C320.377 534.431 319.951 534.77 319.415 534.889L321.629 536.144L321.183 536.929L314.82 533.322L315.227 532.604L315.758 532.855C315.543 532.31 315.597 531.753 315.92 531.184C316.233 530.632 316.688 530.314 317.286 530.23C317.885 530.143 318.556 530.31 319.298 530.731L319.37 530.771ZM318.835 531.507C318.317 531.213 317.845 531.091 317.42 531.142C316.994 531.193 316.672 531.411 316.454 531.796C316.184 532.272 316.193 532.748 316.48 533.225L318.676 534.47C319.229 534.473 319.642 534.232 319.917 533.748C320.13 533.371 320.151 532.988 319.979 532.598C319.805 532.205 319.424 531.841 318.835 531.507ZM323.794 528.205C323.677 528.199 323.495 528.145 323.247 528.041C323.419 528.622 323.362 529.165 323.074 529.672C322.817 530.125 322.479 530.425 322.059 530.573C321.637 530.715 321.23 530.675 320.836 530.452C320.358 530.181 320.089 529.789 320.031 529.277C319.972 528.761 320.13 528.173 320.504 527.513L320.937 526.749L320.576 526.544C320.301 526.388 320.037 526.347 319.782 526.42C319.525 526.491 319.306 526.686 319.124 527.006C318.965 527.287 318.903 527.562 318.937 527.832C318.971 528.102 319.088 528.294 319.29 528.408L318.842 529.198C318.612 529.068 318.437 528.862 318.316 528.58C318.194 528.294 318.149 527.977 318.182 527.629C318.216 527.278 318.328 526.935 318.518 526.601C318.818 526.071 319.186 525.732 319.623 525.583C320.056 525.432 320.508 525.482 320.979 525.734L323.095 526.933C323.517 527.173 323.883 527.309 324.193 527.343L324.261 527.381L323.794 528.205ZM322.455 529.17C322.595 528.923 322.664 528.654 322.662 528.361C322.659 528.067 322.584 527.814 322.437 527.599L321.494 527.064L321.145 527.68C320.599 528.643 320.608 529.284 321.171 529.604C321.418 529.743 321.657 529.77 321.889 529.685C322.12 529.599 322.309 529.428 322.455 529.17ZM320.693 522.962L321.285 523.264C321.042 522.662 321.081 522.078 321.403 521.512C321.953 520.541 322.779 520.361 323.88 520.974L326.917 522.696L326.471 523.482L323.43 521.758C323.097 521.573 322.809 521.51 322.565 521.57C322.323 521.628 322.113 521.814 321.935 522.128C321.79 522.383 321.731 522.645 321.758 522.915C321.785 523.184 321.878 523.436 322.038 523.668L325.313 525.525L324.868 526.311L320.271 523.705L320.693 522.962ZM325.144 520.378C324.439 519.978 323.967 519.49 323.729 518.913C323.488 518.335 323.521 517.775 323.827 517.235C324.132 516.697 324.558 516.375 325.104 516.269L322.709 514.911L323.154 514.125L329.679 517.824L329.269 518.546L328.755 518.305C328.962 518.837 328.906 519.384 328.589 519.945C328.287 520.477 327.822 520.788 327.195 520.878C326.57 520.965 325.906 520.809 325.203 520.411L325.144 520.378ZM325.679 519.642C326.2 519.938 326.668 520.061 327.085 520.013C327.501 519.965 327.817 519.751 328.032 519.371C328.315 518.873 328.297 518.382 327.98 517.899L325.869 516.702C325.302 516.692 324.881 516.93 324.605 517.417C324.387 517.802 324.365 518.187 324.541 518.571C324.716 518.954 325.095 519.312 325.679 519.642ZM331.538 514.741C331.185 515.364 330.694 515.756 330.065 515.915C329.432 516.073 328.774 515.958 328.088 515.57L327.944 515.488C327.488 515.229 327.131 514.912 326.872 514.537C326.612 514.158 326.469 513.756 326.445 513.33C326.419 512.9 326.51 512.503 326.717 512.137C327.056 511.54 327.516 511.187 328.097 511.079C328.679 510.97 329.336 511.124 330.069 511.54L330.397 511.725L328.632 514.839C329.091 515.085 329.532 515.161 329.956 515.068C330.378 514.97 330.699 514.726 330.921 514.335C331.078 514.058 331.155 513.791 331.151 513.534C331.147 513.277 331.092 513.023 330.987 512.773L331.633 512.505C332.006 513.226 331.975 513.971 331.538 514.741ZM327.363 512.503C327.183 512.82 327.148 513.152 327.258 513.499C327.366 513.845 327.613 514.161 328 514.448L329.305 512.145L329.246 512.112C328.834 511.908 328.464 511.841 328.137 511.909C327.807 511.977 327.549 512.175 327.363 512.503ZM330.543 510.854C329.837 510.454 329.366 509.966 329.128 509.39C328.887 508.811 328.919 508.252 329.226 507.711C329.531 507.173 329.957 506.851 330.503 506.745L328.107 505.387L328.553 504.602L335.077 508.3L334.668 509.022L334.154 508.781C334.36 509.314 334.305 509.861 333.987 510.421C333.685 510.954 333.221 511.265 332.594 511.355C331.968 511.441 331.304 511.286 330.602 510.888L330.543 510.854ZM331.077 510.119C331.598 510.414 332.067 510.538 332.484 510.489C332.9 510.441 333.216 510.227 333.431 509.848C333.714 509.349 333.696 508.859 333.379 508.376L331.268 507.179C330.701 507.168 330.28 507.407 330.004 507.894C329.785 508.279 329.764 508.663 329.939 509.047C330.115 509.431 330.494 509.788 331.077 510.119ZM337.68 499.134C338.291 499.581 338.659 500.11 338.785 500.72C338.909 501.326 338.781 501.965 338.399 502.639C337.984 503.37 337.39 503.808 336.616 503.952C335.843 504.094 335.018 503.917 334.14 503.419L333.545 503.082C332.97 502.756 332.523 502.367 332.202 501.916C331.883 501.462 331.714 500.981 331.696 500.473C331.674 499.963 331.804 499.46 332.085 498.965C332.457 498.308 332.94 497.885 333.533 497.698C334.123 497.508 334.761 497.565 335.446 497.867L334.981 498.687C334.448 498.479 334.004 498.431 333.648 498.543C333.294 498.653 332.997 498.92 332.756 499.345C332.461 499.866 332.421 500.385 332.638 500.9C332.856 501.413 333.32 501.871 334.031 502.274L334.63 502.614C335.301 502.994 335.915 503.156 336.47 503.101C337.025 503.045 337.446 502.765 337.732 502.261C337.988 501.808 338.083 501.403 338.016 501.047C337.947 500.686 337.68 500.322 337.216 499.954L337.68 499.134ZM340.69 498.399L340.245 499.184L335.649 496.579L336.094 495.793L340.69 498.399ZM334.393 495.952C334.266 495.879 334.18 495.78 334.136 495.654C334.093 495.525 334.115 495.384 334.201 495.231C334.288 495.078 334.398 494.987 334.531 494.957C334.663 494.928 334.793 494.949 334.921 495.021C335.048 495.094 335.132 495.194 335.172 495.321C335.212 495.448 335.189 495.589 335.102 495.742C335.015 495.894 334.907 495.986 334.777 496.018C334.649 496.046 334.521 496.024 334.393 495.952ZM338.774 492.71C338.687 492.817 338.604 492.941 338.525 493.079C338.233 493.595 338.254 494.069 338.589 494.502L341.851 496.351L341.405 497.137L336.809 494.532L337.243 493.767L337.781 494.055C337.516 493.565 337.518 493.083 337.786 492.61C337.873 492.457 337.959 492.352 338.043 492.296L338.774 492.71ZM343.517 492.115C343.676 491.835 343.73 491.542 343.679 491.236C343.628 490.93 343.481 490.693 343.239 490.526L343.66 489.783C343.916 489.946 344.115 490.179 344.258 490.481C344.401 490.783 344.464 491.114 344.447 491.475C344.431 491.832 344.335 492.167 344.158 492.479C343.804 493.104 343.313 493.485 342.686 493.62C342.059 493.75 341.382 493.61 340.657 493.199L340.526 493.125C340.078 492.871 339.727 492.563 339.472 492.202C339.216 491.84 339.079 491.452 339.06 491.037C339.042 490.619 339.152 490.2 339.39 489.781C339.682 489.266 340.079 488.926 340.58 488.761C341.083 488.593 341.587 488.638 342.093 488.894L341.672 489.638C341.361 489.492 341.054 489.467 340.748 489.563C340.442 489.655 340.204 489.85 340.036 490.147C339.809 490.546 339.778 490.938 339.942 491.323C340.104 491.703 340.457 492.047 341.001 492.356L341.149 492.44C341.679 492.74 342.149 492.862 342.558 492.806C342.968 492.75 343.287 492.52 343.517 492.115ZM346.094 488.867L345.648 489.652L339.124 485.954L339.569 485.168L346.094 488.867ZM347.975 485.746C347.622 486.369 347.131 486.76 346.501 486.92C345.869 487.078 345.21 486.963 344.525 486.574L344.381 486.492C343.925 486.234 343.567 485.917 343.308 485.542C343.048 485.163 342.906 484.76 342.882 484.335C342.856 483.905 342.946 483.507 343.154 483.142C343.492 482.544 343.952 482.192 344.534 482.083C345.115 481.975 345.773 482.129 346.506 482.545L346.833 482.73L345.068 485.844C345.528 486.089 345.969 486.165 346.392 486.072C346.814 485.975 347.136 485.731 347.358 485.34C347.515 485.062 347.592 484.795 347.587 484.538C347.583 484.282 347.529 484.028 347.424 483.778L348.07 483.51C348.443 484.23 348.412 484.976 347.975 485.746ZM343.799 483.508C343.619 483.825 343.585 484.157 343.695 484.504C343.802 484.849 344.05 485.165 344.437 485.452L345.742 483.15L345.683 483.116C345.271 482.913 344.901 482.845 344.574 482.914C344.244 482.981 343.985 483.179 343.799 483.508ZM349.501 477.024L348.677 478.477L351.179 479.895L350.715 480.715L344.53 477.209L345.69 475.162C346.085 474.465 346.547 474.02 347.076 473.826C347.607 473.629 348.175 473.702 348.781 474.046C349.167 474.264 349.443 474.559 349.61 474.931C349.779 475.3 349.829 475.71 349.76 476.161L353.209 476.196L353.26 476.225L352.764 477.1L349.501 477.024ZM348.01 478.099L348.721 476.846C348.95 476.441 349.028 476.06 348.953 475.703C348.88 475.344 348.668 475.065 348.317 474.866C347.934 474.649 347.576 474.597 347.242 474.711C346.91 474.822 346.62 475.092 346.374 475.521L345.666 476.77L348.01 478.099ZM355.294 472.636C355.178 472.63 354.996 472.575 354.748 472.472C354.92 473.052 354.863 473.596 354.575 474.103C354.318 474.556 353.98 474.856 353.56 475.003C353.138 475.146 352.731 475.106 352.337 474.883C351.858 474.611 351.59 474.22 351.532 473.708C351.473 473.192 351.631 472.604 352.005 471.944L352.438 471.179L352.077 470.975C351.802 470.819 351.538 470.778 351.283 470.85C351.026 470.921 350.806 471.117 350.625 471.437C350.466 471.717 350.404 471.993 350.438 472.263C350.472 472.533 350.589 472.725 350.79 472.838L350.343 473.629C350.113 473.499 349.938 473.293 349.817 473.011C349.695 472.725 349.65 472.407 349.683 472.059C349.717 471.708 349.829 471.366 350.019 471.031C350.319 470.502 350.687 470.163 351.123 470.013C351.557 469.862 352.009 469.913 352.48 470.165L354.595 471.364C355.017 471.603 355.383 471.74 355.694 471.773L355.762 471.812L355.294 472.636ZM353.956 473.6C354.096 473.354 354.165 473.084 354.162 472.791C354.16 472.498 354.085 472.244 353.938 472.029L352.995 471.495L352.645 472.111C352.1 473.074 352.108 473.715 352.672 474.034C352.918 474.174 353.157 474.201 353.389 474.115C353.621 474.03 353.81 473.858 353.956 473.6ZM353.924 469.608C353.219 469.208 352.747 468.72 352.509 468.144C352.268 467.566 352.301 467.006 352.607 466.465C352.912 465.927 353.338 465.605 353.884 465.5L351.488 464.141L351.934 463.356L358.459 467.054L358.049 467.776L357.535 467.535C357.742 468.068 357.686 468.615 357.368 469.175C357.067 469.708 356.602 470.019 355.975 470.109C355.349 470.196 354.686 470.04 353.983 469.642L353.924 469.608ZM354.458 468.873C354.98 469.168 355.448 469.292 355.865 469.243C356.281 469.195 356.597 468.981 356.812 468.602C357.095 468.103 357.077 467.613 356.76 467.13L354.649 465.933C354.082 465.922 353.661 466.161 353.385 466.648C353.167 467.033 353.145 467.417 353.32 467.801C353.496 468.185 353.875 468.542 354.458 468.873ZM359.636 464.977L359.191 465.763L354.594 463.158L355.04 462.372L359.636 464.977ZM353.339 462.53C353.212 462.458 353.126 462.359 353.081 462.232C353.039 462.103 353.06 461.962 353.147 461.81C353.234 461.657 353.344 461.565 353.476 461.536C353.609 461.506 353.739 461.528 353.867 461.6C353.994 461.672 354.078 461.772 354.118 461.899C354.158 462.027 354.134 462.167 354.048 462.32C353.961 462.473 353.853 462.565 353.723 462.596C353.595 462.624 353.467 462.602 353.339 462.53ZM361.505 460.62C361.691 461.13 361.617 461.681 361.281 462.273C361.004 462.763 360.65 463.056 360.221 463.153C359.79 463.246 359.295 463.136 358.736 462.822L355.745 461.127L356.191 460.341L359.16 462.024C359.857 462.419 360.366 462.334 360.687 461.767C361.027 461.167 361.03 460.641 360.695 460.189L357.352 458.294L357.797 457.508L362.393 460.113L361.969 460.861L361.505 460.62ZM363.37 455.548C363.158 455.428 362.948 455.416 362.74 455.511C362.531 455.602 362.271 455.823 361.96 456.175C361.65 456.523 361.369 456.781 361.117 456.948C360.866 457.113 360.627 457.206 360.398 457.226C360.172 457.243 359.945 457.188 359.718 457.059C359.342 456.846 359.113 456.507 359.032 456.042C358.953 455.574 359.054 455.092 359.335 454.597C359.63 454.076 360.004 453.73 360.456 453.56C360.91 453.387 361.346 453.419 361.765 453.656L361.317 454.446C361.102 454.324 360.864 454.311 360.604 454.407C360.346 454.5 360.138 454.685 359.981 454.963C359.819 455.249 359.754 455.508 359.787 455.74C359.82 455.972 359.937 456.145 360.138 456.259C360.328 456.367 360.514 456.373 360.695 456.277C360.876 456.182 361.122 455.963 361.431 455.622C361.742 455.278 362.027 455.019 362.287 454.845C362.547 454.67 362.796 454.574 363.035 454.556C363.272 454.533 363.514 454.592 363.76 454.731C364.171 454.964 364.408 455.315 364.471 455.785C364.531 456.253 364.412 456.749 364.115 457.273C363.907 457.641 363.657 457.93 363.366 458.139C363.075 458.349 362.768 458.468 362.444 458.498C362.12 458.523 361.821 458.459 361.549 458.305L361.995 457.519C362.266 457.654 362.535 457.668 362.802 457.561C363.067 457.449 363.291 457.232 363.474 456.909C363.643 456.612 363.718 456.341 363.7 456.095C363.681 455.844 363.571 455.662 363.37 455.548Z" fill="black"/>
<path d="M87.7139 448.156L87.7139 451.237L90.2334 451.237L90.2334 447.658L91 447.658L91 452.175L83.8906 452.175L83.8906 447.707L84.6621 447.707L84.6621 451.237L86.9473 451.237L86.9473 448.156L87.7139 448.156ZM87.6455 444.86L85.7168 443.688L85.7168 442.634L88.3291 444.362L91 442.58L91 443.625L89.0225 444.846L91 446.066L91 447.116L88.3291 445.334L85.7168 447.062L85.7168 446.018L87.6455 444.86ZM88.417 437.209C89.221 437.209 89.8688 437.393 90.3604 437.761C90.8519 438.129 91.0977 438.627 91.0977 439.255C91.0977 439.896 90.8942 440.401 90.4873 440.769L93.0313 440.769L93.0313 441.672L85.7168 441.672L85.7168 440.847L86.3027 440.803C85.847 440.435 85.6191 439.924 85.6191 439.27C85.6191 438.635 85.8584 438.133 86.3369 437.766C86.8154 437.395 87.4811 437.209 88.334 437.209L88.417 437.209ZM88.3145 438.112C87.7188 438.112 87.2484 438.239 86.9033 438.493C86.5583 438.747 86.3857 439.095 86.3857 439.538C86.3857 440.085 86.6283 440.495 87.1133 440.769L89.6377 440.769C90.1195 440.498 90.3604 440.085 90.3604 439.528C90.3604 439.095 90.1895 438.752 89.8477 438.498C89.5026 438.241 88.9915 438.112 88.3145 438.112ZM91 432.795C90.8958 432.847 90.7103 432.889 90.4434 432.922C90.8796 433.342 91.0977 433.843 91.0977 434.426C91.0977 434.947 90.9512 435.375 90.6582 435.71C90.362 436.042 89.9876 436.208 89.5352 436.208C88.985 436.208 88.5586 436 88.2559 435.583C87.9499 435.163 87.7969 434.574 87.7969 433.815L87.7969 432.937L87.3818 432.937C87.0661 432.937 86.8154 433.031 86.6299 433.22C86.4411 433.409 86.3467 433.687 86.3467 434.055C86.3467 434.377 86.4281 434.647 86.5908 434.865C86.7536 435.083 86.9505 435.192 87.1816 435.192L87.1816 436.101C86.918 436.101 86.6641 436.008 86.4199 435.822C86.1725 435.633 85.9772 435.38 85.834 435.061C85.6908 434.738 85.6191 434.385 85.6191 434.001C85.6191 433.392 85.7721 432.915 86.0781 432.57C86.3809 432.225 86.7992 432.046 87.333 432.033L89.7647 432.033C90.2497 432.033 90.6354 431.971 90.9219 431.848L91 431.848L91 432.795ZM90.3115 434.294C90.3115 434.011 90.2383 433.742 90.0918 433.488C89.9453 433.234 89.7549 433.05 89.5205 432.937L88.4365 432.937L88.4365 433.645C88.4365 434.751 88.7604 435.305 89.4082 435.305C89.6914 435.305 89.9128 435.21 90.0723 435.021C90.2318 434.833 90.3115 434.59 90.3115 434.294ZM85.7168 429.763L86.3809 429.733C85.8731 429.33 85.6191 428.802 85.6191 428.151C85.6191 427.035 86.249 426.472 87.5088 426.462L91 426.462L91 427.365L87.5039 427.365C87.1231 427.368 86.8415 427.456 86.6592 427.629C86.4769 427.798 86.3857 428.063 86.3857 428.425C86.3857 428.718 86.4639 428.975 86.6201 429.196C86.7764 429.418 86.9815 429.59 87.2354 429.714L91 429.714L91 430.617L85.7168 430.617L85.7168 429.763ZM88.3145 425.319C87.5039 425.319 86.8529 425.127 86.3613 424.743C85.8665 424.359 85.6191 423.856 85.6191 423.234C85.6191 422.616 85.8307 422.126 86.2539 421.765L83.5 421.765L83.5 420.861L91 420.861L91 421.691L90.4336 421.735C90.8763 422.097 91.0977 422.6 91.0977 423.244C91.0977 423.856 90.847 424.356 90.3457 424.743C89.8444 425.127 89.1901 425.319 88.3828 425.319L88.3145 425.319ZM88.417 424.416C89.016 424.416 89.4847 424.292 89.8232 424.045C90.1618 423.798 90.3311 423.456 90.3311 423.02C90.3311 422.447 90.0739 422.028 89.5596 421.765L87.1328 421.765C86.6348 422.035 86.3857 422.45 86.3857 423.01C86.3857 423.452 86.5566 423.798 86.8984 424.045C87.2402 424.292 87.7464 424.416 88.417 424.416ZM91.0977 417.263C91.0977 417.979 90.8633 418.562 90.3945 419.011C89.9225 419.46 89.2926 419.685 88.5049 419.685L88.3389 419.685C87.8148 419.685 87.3477 419.585 86.9375 419.387C86.5241 419.185 86.2018 418.905 85.9707 418.547C85.7363 418.186 85.6191 417.795 85.6191 417.375C85.6191 416.688 85.8454 416.154 86.2979 415.773C86.7503 415.393 87.3981 415.202 88.2412 415.202L88.6172 415.202L88.6172 418.781C89.138 418.768 89.5596 418.617 89.8818 418.327C90.2009 418.034 90.3604 417.663 90.3604 417.214C90.3604 416.895 90.2953 416.625 90.165 416.403C90.0348 416.182 89.8623 415.988 89.6475 415.822L90.0772 415.271C90.7575 415.713 91.0977 416.377 91.0977 417.263ZM86.3613 417.375C86.3613 417.74 86.4948 418.046 86.7617 418.293C87.0254 418.54 87.3965 418.693 87.875 418.752L87.875 416.105L87.8066 416.105C87.3477 416.132 86.9928 416.255 86.7422 416.477C86.4883 416.698 86.3613 416.997 86.3613 417.375ZM88.3145 414.372C87.5039 414.372 86.8529 414.18 86.3613 413.796C85.8665 413.412 85.6191 412.909 85.6191 412.287C85.6191 411.669 85.8307 411.179 86.2539 410.817L83.5 410.817L83.5 409.914L91 409.914L91 410.744L90.4336 410.788C90.8763 411.149 91.0977 411.652 91.0977 412.297C91.0977 412.909 90.847 413.409 90.3457 413.796C89.8444 414.18 89.1901 414.372 88.3828 414.372L88.3145 414.372ZM88.417 413.469C89.016 413.469 89.4847 413.345 89.8232 413.098C90.1618 412.85 90.3311 412.508 90.3311 412.072C90.3311 411.499 90.0739 411.081 89.5596 410.817L87.1328 410.817C86.6348 411.088 86.3857 411.503 86.3857 412.062C86.3857 412.505 86.5566 412.85 86.8984 413.098C87.2402 413.345 87.7464 413.469 88.417 413.469ZM88.7441 400.656C89.4961 400.744 90.0772 401.022 90.4873 401.491C90.8942 401.957 91.0977 402.577 91.0977 403.352C91.0977 404.191 90.7966 404.865 90.1943 405.373C89.5921 405.878 88.7865 406.13 87.7773 406.13L87.0938 406.13C86.4329 406.13 85.8519 406.013 85.3506 405.778C84.8493 405.541 84.4652 405.205 84.1982 404.772C83.9281 404.34 83.793 403.838 83.793 403.269C83.793 402.513 84.0046 401.908 84.4277 401.452C84.8477 400.996 85.4303 400.731 86.1758 400.656L86.1758 401.599C85.6094 401.68 85.1992 401.857 84.9453 402.131C84.6914 402.401 84.5645 402.78 84.5645 403.269C84.5645 403.868 84.7858 404.338 85.2285 404.68C85.6712 405.018 86.3011 405.187 87.1182 405.187L87.8066 405.187C88.5781 405.187 89.1917 405.026 89.6475 404.704C90.1032 404.382 90.3311 403.931 90.3311 403.352C90.3311 402.831 90.2139 402.432 89.9795 402.155C89.7419 401.875 89.3301 401.69 88.7441 401.599L88.7441 400.656ZM91 398.532L91 399.436L85.7168 399.436L85.7168 398.532L91 398.532ZM84.3154 399.509C84.169 399.509 84.0453 399.465 83.9443 399.377C83.8434 399.286 83.793 399.152 83.793 398.977C83.793 398.801 83.8434 398.667 83.9443 398.576C84.0453 398.485 84.169 398.439 84.3154 398.439C84.4619 398.439 84.584 398.485 84.6816 398.576C84.7793 398.667 84.8281 398.801 84.8281 398.977C84.8281 399.152 84.7793 399.286 84.6816 399.377C84.584 399.465 84.4619 399.509 84.3154 399.509ZM86.5273 394.528C86.5046 394.665 86.4932 394.813 86.4932 394.973C86.4932 395.565 86.7454 395.967 87.25 396.179L91 396.179L91 397.082L85.7168 397.082L85.7168 396.203L86.3272 396.188C85.8551 395.892 85.6191 395.472 85.6191 394.929C85.6191 394.753 85.6419 394.619 85.6875 394.528L86.5273 394.528ZM90.3604 391.672C90.3604 391.35 90.2627 391.068 90.0674 390.827C89.8721 390.586 89.6279 390.453 89.335 390.427L89.335 389.572C89.6377 389.589 89.9258 389.693 90.1992 389.885C90.4727 390.077 90.6908 390.334 90.8535 390.656C91.0163 390.975 91.0977 391.314 91.0977 391.672C91.0977 392.391 90.8584 392.964 90.3799 393.391C89.8981 393.814 89.2406 394.025 88.4072 394.025L88.2559 394.025C87.7415 394.025 87.2842 393.931 86.8838 393.742C86.4834 393.553 86.1725 393.283 85.9512 392.932C85.7298 392.577 85.6191 392.159 85.6191 391.677C85.6191 391.084 85.7966 390.593 86.1514 390.202C86.5062 389.808 86.9668 389.598 87.5332 389.572L87.5332 390.427C87.1914 390.453 86.9115 390.583 86.6934 390.817C86.472 391.049 86.3613 391.335 86.3613 391.677C86.3613 392.136 86.5273 392.492 86.8594 392.746C87.1882 392.997 87.665 393.122 88.29 393.122L88.4609 393.122C89.0697 393.122 89.5384 392.997 89.8672 392.746C90.196 392.495 90.3604 392.137 90.3604 391.672ZM91 387.575L91 388.479L83.5 388.479L83.5 387.575L91 387.575ZM91.0977 383.933C91.0977 384.649 90.8633 385.231 90.3945 385.681C89.9225 386.13 89.2926 386.354 88.5049 386.354L88.3389 386.354C87.8148 386.354 87.3477 386.255 86.9375 386.057C86.5241 385.855 86.2018 385.575 85.9707 385.217C85.7363 384.855 85.6191 384.465 85.6191 384.045C85.6191 383.358 85.8454 382.824 86.2979 382.443C86.7503 382.062 87.3981 381.872 88.2412 381.872L88.6172 381.872L88.6172 385.451C89.138 385.438 89.5596 385.287 89.8818 384.997C90.2009 384.704 90.3604 384.333 90.3604 383.884C90.3604 383.565 90.2953 383.295 90.165 383.073C90.0348 382.852 89.8623 382.658 89.6475 382.492L90.0772 381.94C90.7575 382.383 91.0977 383.047 91.0977 383.933ZM86.3613 384.045C86.3613 384.41 86.4948 384.715 86.7617 384.963C87.0254 385.21 87.3965 385.363 87.875 385.422L87.875 382.775L87.8066 382.775C87.3477 382.801 86.9928 382.925 86.7422 383.146C86.4883 383.368 86.3613 383.667 86.3613 384.045ZM91 370.256L91 371.198L87.7139 371.198L87.7139 374.782L91 374.782L91 375.72L83.8906 375.72L83.8906 374.782L86.9473 374.782L86.9473 371.198L83.8906 371.198L83.8906 370.256L91 370.256ZM91.0977 366.54C91.0977 367.256 90.8633 367.839 90.3945 368.288C89.9225 368.737 89.2926 368.962 88.5049 368.962L88.3389 368.962C87.8148 368.962 87.3477 368.863 86.9375 368.664C86.5241 368.462 86.2018 368.182 85.9707 367.824C85.7363 367.463 85.6191 367.072 85.6191 366.652C85.6191 365.965 85.8454 365.432 86.2979 365.051C86.7503 364.67 87.3981 364.479 88.2412 364.479L88.6172 364.479L88.6172 368.059C89.138 368.046 89.5596 367.894 89.8818 367.604C90.2009 367.312 90.3604 366.94 90.3604 366.491C90.3604 366.172 90.2953 365.902 90.165 365.681C90.0348 365.459 89.8623 365.266 89.6475 365.1L90.0772 364.548C90.7575 364.991 91.0977 365.655 91.0977 366.54ZM86.3613 366.652C86.3613 367.017 86.4948 367.323 86.7617 367.57C87.0254 367.818 87.3965 367.971 87.875 368.029L87.875 365.383L87.8066 365.383C87.3477 365.409 86.9928 365.533 86.7422 365.754C86.4883 365.975 86.3613 366.275 86.3613 366.652ZM91 362.448L91 363.352L85.7168 363.352L85.7168 362.448L91 362.448ZM84.3154 363.425C84.1689 363.425 84.0453 363.381 83.9443 363.293C83.8434 363.202 83.793 363.068 83.793 362.893C83.793 362.717 83.8434 362.583 83.9443 362.492C84.0453 362.401 84.1689 362.355 84.3154 362.355C84.4619 362.355 84.584 362.401 84.6816 362.492C84.7793 362.583 84.8281 362.717 84.8281 362.893C84.8281 363.068 84.7793 363.202 84.6816 363.293C84.584 363.381 84.4619 363.425 84.3154 363.425ZM88.3145 361.213C87.4909 361.213 86.8366 361.022 86.3516 360.642C85.8633 360.261 85.6191 359.756 85.6191 359.128C85.6191 358.483 85.847 357.98 86.3027 357.619L85.7168 357.575L85.7168 356.75L90.8731 356.75C91.5566 356.75 92.0954 356.953 92.4893 357.36C92.8831 357.764 93.0801 358.308 93.0801 358.991C93.0801 359.372 92.9987 359.745 92.8359 360.109C92.6732 360.474 92.4502 360.752 92.167 360.944L91.625 360.476C92.1035 360.088 92.3428 359.615 92.3428 359.055C92.3428 358.615 92.2191 358.273 91.9717 358.029C91.7243 357.782 91.376 357.658 90.9268 357.658L90.4727 357.658C90.8893 358.02 91.0977 358.513 91.0977 359.138C91.0977 359.756 90.8486 360.257 90.3506 360.642C89.8525 361.022 89.1738 361.213 88.3145 361.213ZM88.417 360.305C89.0127 360.305 89.4814 360.183 89.8232 359.938C90.1618 359.694 90.3311 359.353 90.3311 358.913C90.3311 358.343 90.0723 357.925 89.5547 357.658L87.1426 357.658C86.638 357.935 86.3857 358.35 86.3857 358.903C86.3857 359.343 86.5566 359.686 86.8984 359.934C87.2402 360.181 87.7464 360.305 88.417 360.305ZM86.3564 354.479C85.8649 354.079 85.6191 353.558 85.6191 352.917C85.6191 351.8 86.249 351.237 87.5088 351.228L91 351.228L91 352.131L87.5039 352.131C87.1231 352.134 86.8415 352.222 86.6592 352.395C86.4769 352.564 86.3857 352.829 86.3857 353.19C86.3857 353.483 86.4639 353.741 86.6201 353.962C86.7764 354.183 86.9814 354.356 87.2354 354.479L91 354.479L91 355.383L83.5 355.383L83.5 354.479L86.3564 354.479ZM84.4375 348.649L85.7168 348.649L85.7168 347.663L86.415 347.663L86.415 348.649L89.6914 348.649C89.903 348.649 90.0625 348.605 90.1699 348.518C90.2741 348.43 90.3262 348.28 90.3262 348.068C90.3262 347.964 90.3066 347.821 90.2676 347.639L91 347.639C91.0651 347.876 91.0977 348.107 91.0977 348.332C91.0977 348.736 90.9756 349.04 90.7314 349.245C90.4873 349.45 90.1406 349.553 89.6914 349.553L86.415 349.553L86.415 350.515L85.7168 350.515L85.7168 349.553L84.4375 349.553L84.4375 348.649Z" fill="black"/>
<path d="M368.844 87.7139H365.763V90.2334H369.342V91H364.825V83.8906H369.293V84.6621H365.763V86.9473H368.844V87.7139ZM372.14 87.6455L373.312 85.7168H374.366L372.638 88.3291L374.42 91H373.375L372.154 89.0225L370.934 91H369.884L371.666 88.3291L369.938 85.7168H370.982L372.14 87.6455ZM379.791 88.417C379.791 89.221 379.607 89.8688 379.239 90.3604C378.871 90.8519 378.373 91.0977 377.745 91.0977C377.104 91.0977 376.599 90.8942 376.231 90.4873V93.0312H375.328V85.7168H376.153L376.197 86.3027C376.565 85.847 377.076 85.6191 377.73 85.6191C378.365 85.6191 378.867 85.8584 379.234 86.3369C379.605 86.8154 379.791 87.4811 379.791 88.334V88.417ZM378.888 88.3145C378.888 87.7188 378.761 87.2484 378.507 86.9033C378.253 86.5583 377.905 86.3857 377.462 86.3857C376.915 86.3857 376.505 86.6283 376.231 87.1133V89.6377C376.502 90.1195 376.915 90.3604 377.472 90.3604C377.905 90.3604 378.248 90.1895 378.502 89.8477C378.759 89.5026 378.888 88.9915 378.888 88.3145ZM384.205 91C384.153 90.8958 384.111 90.7103 384.078 90.4434C383.658 90.8796 383.157 91.0977 382.574 91.0977C382.053 91.0977 381.625 90.9512 381.29 90.6582C380.958 90.362 380.792 89.9876 380.792 89.5352C380.792 88.985 381 88.5586 381.417 88.2559C381.837 87.9499 382.426 87.7969 383.185 87.7969H384.063V87.3818C384.063 87.0661 383.969 86.8154 383.78 86.6299C383.591 86.4411 383.313 86.3467 382.945 86.3467C382.623 86.3467 382.353 86.4281 382.135 86.5908C381.917 86.7536 381.808 86.9505 381.808 87.1816H380.899C380.899 86.918 380.992 86.6641 381.178 86.4199C381.367 86.1725 381.62 85.9772 381.939 85.834C382.262 85.6908 382.615 85.6191 382.999 85.6191C383.608 85.6191 384.085 85.7721 384.43 86.0781C384.775 86.3809 384.954 86.7992 384.967 87.333V89.7646C384.967 90.2497 385.029 90.6354 385.152 90.9219V91H384.205ZM382.706 90.3115C382.989 90.3115 383.258 90.2383 383.512 90.0918C383.766 89.9453 383.95 89.7549 384.063 89.5205V88.4365H383.355C382.249 88.4365 381.695 88.7604 381.695 89.4082C381.695 89.6914 381.79 89.9128 381.979 90.0723C382.167 90.2318 382.41 90.3115 382.706 90.3115ZM387.237 85.7168L387.267 86.3809C387.67 85.873 388.198 85.6191 388.849 85.6191C389.965 85.6191 390.528 86.249 390.538 87.5088V91H389.635V87.5039C389.632 87.123 389.544 86.8415 389.371 86.6592C389.202 86.4769 388.937 86.3857 388.575 86.3857C388.282 86.3857 388.025 86.4639 387.804 86.6201C387.582 86.7764 387.41 86.9814 387.286 87.2354V91H386.383V85.7168H387.237ZM391.681 88.3145C391.681 87.5039 391.873 86.8529 392.257 86.3613C392.641 85.8665 393.144 85.6191 393.766 85.6191C394.384 85.6191 394.874 85.8307 395.235 86.2539V83.5H396.139V91H395.309L395.265 90.4336C394.903 90.8763 394.4 91.0977 393.756 91.0977C393.144 91.0977 392.644 90.847 392.257 90.3457C391.873 89.8444 391.681 89.1901 391.681 88.3828V88.3145ZM392.584 88.417C392.584 89.016 392.708 89.4847 392.955 89.8232C393.202 90.1618 393.544 90.3311 393.98 90.3311C394.553 90.3311 394.972 90.0739 395.235 89.5596V87.1328C394.965 86.6348 394.55 86.3857 393.99 86.3857C393.548 86.3857 393.202 86.5566 392.955 86.8984C392.708 87.2402 392.584 87.7464 392.584 88.417ZM399.737 91.0977C399.021 91.0977 398.438 90.8633 397.989 90.3945C397.54 89.9225 397.315 89.2926 397.315 88.5049V88.3389C397.315 87.8148 397.415 87.3477 397.613 86.9375C397.815 86.5241 398.095 86.2018 398.453 85.9707C398.814 85.7363 399.205 85.6191 399.625 85.6191C400.312 85.6191 400.846 85.8454 401.227 86.2979C401.607 86.7503 401.798 87.3981 401.798 88.2412V88.6172H398.219C398.232 89.138 398.383 89.5596 398.673 89.8818C398.966 90.2008 399.337 90.3604 399.786 90.3604C400.105 90.3604 400.375 90.2952 400.597 90.165C400.818 90.0348 401.012 89.8623 401.178 89.6475L401.729 90.0771C401.287 90.7575 400.623 91.0977 399.737 91.0977ZM399.625 86.3613C399.26 86.3613 398.954 86.4948 398.707 86.7617C398.46 87.0254 398.307 87.3965 398.248 87.875H400.895V87.8066C400.868 87.3477 400.745 86.9928 400.523 86.7422C400.302 86.4883 400.003 86.3613 399.625 86.3613ZM402.628 88.3145C402.628 87.5039 402.82 86.8529 403.204 86.3613C403.588 85.8665 404.091 85.6191 404.713 85.6191C405.331 85.6191 405.821 85.8307 406.183 86.2539V83.5H407.086V91H406.256L406.212 90.4336C405.851 90.8763 405.348 91.0977 404.703 91.0977C404.091 91.0977 403.591 90.847 403.204 90.3457C402.82 89.8444 402.628 89.1901 402.628 88.3828V88.3145ZM403.531 88.417C403.531 89.016 403.655 89.4847 403.902 89.8232C404.15 90.1618 404.492 90.3311 404.928 90.3311C405.501 90.3311 405.919 90.0739 406.183 89.5596V87.1328C405.912 86.6348 405.497 86.3857 404.938 86.3857C404.495 86.3857 404.15 86.5566 403.902 86.8984C403.655 87.2402 403.531 87.7464 403.531 88.417ZM416.344 88.7441C416.256 89.4961 415.978 90.0771 415.509 90.4873C415.043 90.8942 414.423 91.0977 413.648 91.0977C412.809 91.0977 412.135 90.7965 411.627 90.1943C411.122 89.5921 410.87 88.7865 410.87 87.7773V87.0938C410.87 86.4329 410.987 85.8519 411.222 85.3506C411.459 84.8493 411.795 84.4652 412.228 84.1982C412.66 83.9281 413.162 83.793 413.731 83.793C414.487 83.793 415.092 84.0046 415.548 84.4277C416.004 84.8477 416.269 85.4303 416.344 86.1758H415.401C415.32 85.6094 415.143 85.1992 414.869 84.9453C414.599 84.6914 414.22 84.5645 413.731 84.5645C413.132 84.5645 412.662 84.7858 412.32 85.2285C411.982 85.6712 411.812 86.3011 411.812 87.1182V87.8066C411.812 88.5781 411.974 89.1917 412.296 89.6475C412.618 90.1032 413.069 90.3311 413.648 90.3311C414.169 90.3311 414.568 90.2139 414.845 89.9795C415.125 89.7419 415.31 89.3301 415.401 88.7441H416.344ZM418.468 91H417.564V85.7168H418.468V91ZM417.491 84.3154C417.491 84.1689 417.535 84.0452 417.623 83.9443C417.714 83.8434 417.848 83.793 418.023 83.793C418.199 83.793 418.333 83.8434 418.424 83.9443C418.515 84.0452 418.561 84.1689 418.561 84.3154C418.561 84.4619 418.515 84.584 418.424 84.6816C418.333 84.7793 418.199 84.8281 418.023 84.8281C417.848 84.8281 417.714 84.7793 417.623 84.6816C417.535 84.584 417.491 84.4619 417.491 84.3154ZM422.472 86.5273C422.335 86.5046 422.187 86.4932 422.027 86.4932C421.435 86.4932 421.033 86.7454 420.821 87.25V91H419.918V85.7168H420.797L420.812 86.3271C421.108 85.8551 421.528 85.6191 422.071 85.6191C422.247 85.6191 422.381 85.6419 422.472 85.6875V86.5273ZM425.328 90.3604C425.65 90.3604 425.932 90.2627 426.173 90.0674C426.414 89.8721 426.547 89.6279 426.573 89.335H427.428C427.411 89.6377 427.307 89.9258 427.115 90.1992C426.923 90.4727 426.666 90.6908 426.344 90.8535C426.025 91.0163 425.686 91.0977 425.328 91.0977C424.609 91.0977 424.036 90.8584 423.609 90.3799C423.186 89.8981 422.975 89.2406 422.975 88.4072V88.2559C422.975 87.7415 423.069 87.2842 423.258 86.8838C423.447 86.4834 423.717 86.1725 424.068 85.9512C424.423 85.7298 424.841 85.6191 425.323 85.6191C425.916 85.6191 426.407 85.7965 426.798 86.1514C427.192 86.5062 427.402 86.9668 427.428 87.5332H426.573C426.547 87.1914 426.417 86.9115 426.183 86.6934C425.951 86.472 425.665 86.3613 425.323 86.3613C424.864 86.3613 424.508 86.5273 424.254 86.8594C424.003 87.1882 423.878 87.665 423.878 88.29V88.4609C423.878 89.0697 424.003 89.5384 424.254 89.8672C424.505 90.196 424.863 90.3604 425.328 90.3604ZM429.425 91H428.521V83.5H429.425V91ZM433.067 91.0977C432.351 91.0977 431.769 90.8633 431.319 90.3945C430.87 89.9225 430.646 89.2926 430.646 88.5049V88.3389C430.646 87.8148 430.745 87.3477 430.943 86.9375C431.145 86.5241 431.425 86.2018 431.783 85.9707C432.145 85.7363 432.535 85.6191 432.955 85.6191C433.642 85.6191 434.176 85.8454 434.557 86.2979C434.938 86.7503 435.128 87.3981 435.128 88.2412V88.6172H431.549C431.562 89.138 431.713 89.5596 432.003 89.8818C432.296 90.2008 432.667 90.3604 433.116 90.3604C433.435 90.3604 433.705 90.2952 433.927 90.165C434.148 90.0348 434.342 89.8623 434.508 89.6475L435.06 90.0771C434.617 90.7575 433.953 91.0977 433.067 91.0977ZM432.955 86.3613C432.59 86.3613 432.285 86.4948 432.037 86.7617C431.79 87.0254 431.637 87.3965 431.578 87.875H434.225V87.8066C434.199 87.3477 434.075 86.9928 433.854 86.7422C433.632 86.4883 433.333 86.3613 432.955 86.3613Z" fill="black"/>
<rect x="249.5" y="306.5" width="199" height="359" stroke="black"/>
<path d="M326.055 300.744C325.967 301.496 325.688 302.077 325.22 302.487C324.754 302.894 324.134 303.098 323.359 303.098C322.52 303.098 321.846 302.797 321.338 302.194C320.833 301.592 320.581 300.786 320.581 299.777V299.094C320.581 298.433 320.698 297.852 320.933 297.351C321.17 296.849 321.506 296.465 321.938 296.198C322.371 295.928 322.873 295.793 323.442 295.793C324.198 295.793 324.803 296.005 325.259 296.428C325.715 296.848 325.98 297.43 326.055 298.176H325.112C325.031 297.609 324.854 297.199 324.58 296.945C324.31 296.691 323.931 296.564 323.442 296.564C322.843 296.564 322.373 296.786 322.031 297.229C321.693 297.671 321.523 298.301 321.523 299.118V299.807C321.523 300.578 321.685 301.192 322.007 301.647C322.329 302.103 322.78 302.331 323.359 302.331C323.88 302.331 324.279 302.214 324.556 301.979C324.836 301.742 325.021 301.33 325.112 300.744H326.055ZM326.958 300.31C326.958 299.792 327.059 299.326 327.261 298.913C327.466 298.5 327.749 298.181 328.11 297.956C328.475 297.731 328.89 297.619 329.355 297.619C330.075 297.619 330.656 297.868 331.099 298.366C331.545 298.864 331.768 299.527 331.768 300.354V300.417C331.768 300.931 331.668 301.394 331.47 301.804C331.274 302.211 330.993 302.528 330.625 302.756C330.26 302.984 329.84 303.098 329.365 303.098C328.649 303.098 328.068 302.849 327.622 302.351C327.179 301.853 326.958 301.193 326.958 300.373V300.31ZM327.866 300.417C327.866 301.003 328.001 301.473 328.271 301.828C328.545 302.183 328.91 302.36 329.365 302.36C329.824 302.36 330.189 302.181 330.459 301.823C330.729 301.462 330.864 300.957 330.864 300.31C330.864 299.73 330.726 299.261 330.449 298.903C330.176 298.542 329.811 298.361 329.355 298.361C328.91 298.361 328.55 298.539 328.276 298.894C328.003 299.248 327.866 299.756 327.866 300.417ZM333.755 297.717L333.784 298.381C334.188 297.873 334.715 297.619 335.366 297.619C336.483 297.619 337.046 298.249 337.056 299.509V303H336.152V299.504C336.149 299.123 336.061 298.841 335.889 298.659C335.719 298.477 335.454 298.386 335.093 298.386C334.8 298.386 334.543 298.464 334.321 298.62C334.1 298.776 333.927 298.981 333.804 299.235V303H332.9V297.717H333.755ZM339.644 296.438V297.717H340.63V298.415H339.644V301.691C339.644 301.903 339.688 302.062 339.775 302.17C339.863 302.274 340.013 302.326 340.225 302.326C340.329 302.326 340.472 302.307 340.654 302.268V303C340.417 303.065 340.186 303.098 339.961 303.098C339.557 303.098 339.253 302.976 339.048 302.731C338.843 302.487 338.74 302.141 338.74 301.691V298.415H337.778V297.717H338.74V296.438H339.644ZM343.882 303.098C343.166 303.098 342.583 302.863 342.134 302.395C341.685 301.923 341.46 301.293 341.46 300.505V300.339C341.46 299.815 341.559 299.348 341.758 298.938C341.96 298.524 342.24 298.202 342.598 297.971C342.959 297.736 343.35 297.619 343.77 297.619C344.456 297.619 344.99 297.845 345.371 298.298C345.752 298.75 345.942 299.398 345.942 300.241V300.617H342.363C342.376 301.138 342.528 301.56 342.817 301.882C343.11 302.201 343.481 302.36 343.931 302.36C344.25 302.36 344.52 302.295 344.741 302.165C344.963 302.035 345.156 301.862 345.322 301.647L345.874 302.077C345.431 302.757 344.767 303.098 343.882 303.098ZM343.77 298.361C343.405 298.361 343.099 298.495 342.852 298.762C342.604 299.025 342.451 299.396 342.393 299.875H345.039V299.807C345.013 299.348 344.889 298.993 344.668 298.742C344.447 298.488 344.147 298.361 343.77 298.361ZM347.847 297.717L347.876 298.381C348.28 297.873 348.807 297.619 349.458 297.619C350.575 297.619 351.138 298.249 351.147 299.509V303H350.244V299.504C350.241 299.123 350.153 298.841 349.98 298.659C349.811 298.477 349.546 298.386 349.185 298.386C348.892 298.386 348.634 298.464 348.413 298.62C348.192 298.776 348.019 298.981 347.896 299.235V303H346.992V297.717H347.847ZM353.735 296.438V297.717H354.722V298.415H353.735V301.691C353.735 301.903 353.779 302.062 353.867 302.17C353.955 302.274 354.105 302.326 354.316 302.326C354.421 302.326 354.564 302.307 354.746 302.268V303C354.508 303.065 354.277 303.098 354.053 303.098C353.649 303.098 353.345 302.976 353.14 302.731C352.935 302.487 352.832 302.141 352.832 301.691V298.415H351.87V297.717H352.832V296.438H353.735ZM361.011 300.124H359.341V303H358.398V295.891H360.752C361.553 295.891 362.168 296.073 362.598 296.438C363.031 296.802 363.247 297.333 363.247 298.029C363.247 298.472 363.127 298.858 362.886 299.187C362.648 299.515 362.316 299.761 361.89 299.924L363.56 302.941V303H362.554L361.011 300.124ZM359.341 299.357H360.781C361.247 299.357 361.616 299.237 361.89 298.996C362.166 298.755 362.305 298.433 362.305 298.029C362.305 297.59 362.173 297.253 361.909 297.019C361.649 296.784 361.271 296.665 360.776 296.662H359.341V299.357ZM366.616 303.098C365.9 303.098 365.317 302.863 364.868 302.395C364.419 301.923 364.194 301.293 364.194 300.505V300.339C364.194 299.815 364.294 299.348 364.492 298.938C364.694 298.524 364.974 298.202 365.332 297.971C365.693 297.736 366.084 297.619 366.504 297.619C367.191 297.619 367.725 297.845 368.105 298.298C368.486 298.75 368.677 299.398 368.677 300.241V300.617H365.098C365.111 301.138 365.262 301.56 365.552 301.882C365.845 302.201 366.216 302.36 366.665 302.36C366.984 302.36 367.254 302.295 367.476 302.165C367.697 302.035 367.891 301.862 368.057 301.647L368.608 302.077C368.166 302.757 367.502 303.098 366.616 303.098ZM366.504 298.361C366.139 298.361 365.833 298.495 365.586 298.762C365.339 299.025 365.186 299.396 365.127 299.875H367.773V299.807C367.747 299.348 367.624 298.993 367.402 298.742C367.181 298.488 366.882 298.361 366.504 298.361ZM371.846 302.36C372.168 302.36 372.45 302.263 372.69 302.067C372.931 301.872 373.065 301.628 373.091 301.335H373.945C373.929 301.638 373.825 301.926 373.633 302.199C373.441 302.473 373.184 302.691 372.861 302.854C372.542 303.016 372.204 303.098 371.846 303.098C371.126 303.098 370.553 302.858 370.127 302.38C369.704 301.898 369.492 301.241 369.492 300.407V300.256C369.492 299.742 369.587 299.284 369.775 298.884C369.964 298.483 370.234 298.173 370.586 297.951C370.941 297.73 371.359 297.619 371.841 297.619C372.433 297.619 372.925 297.797 373.315 298.151C373.709 298.506 373.919 298.967 373.945 299.533H373.091C373.065 299.191 372.935 298.911 372.7 298.693C372.469 298.472 372.183 298.361 371.841 298.361C371.382 298.361 371.025 298.527 370.771 298.859C370.521 299.188 370.396 299.665 370.396 300.29V300.461C370.396 301.07 370.521 301.538 370.771 301.867C371.022 302.196 371.38 302.36 371.846 302.36ZM376.187 296.438V297.717H377.173V298.415H376.187V301.691C376.187 301.903 376.23 302.062 376.318 302.17C376.406 302.274 376.556 302.326 376.768 302.326C376.872 302.326 377.015 302.307 377.197 302.268V303C376.96 303.065 376.729 303.098 376.504 303.098C376.1 303.098 375.796 302.976 375.591 302.731C375.386 302.487 375.283 302.141 375.283 301.691V298.415H374.321V297.717H375.283V296.438H376.187Z" fill="black"/>
<path d="M400 400L250 665" stroke="black" stroke-width="0.5"/>
<path d="M400 400L250 307" stroke="black" stroke-opacity="0.25" stroke-width="0.5"/>
<path d="M400 400L448 307" stroke="black" stroke-opacity="0.25" stroke-width="0.5"/>
<path d="M400 400L448 665" stroke="black" stroke-opacity="0.25" stroke-width="0.5"/>
</svg>
